<svg width="232" height="232" viewBox="0 0 232 232" fill="none" xmlns="http://www.w3.org/2000/svg">
<g clip-path="url(#clip0_40_8)">
<path d="M210.25 116C210.25 140.997 200.32 164.97 182.645 182.645C164.97 200.32 140.997 210.25 116 210.25C91.0033 210.25 67.0305 200.32 49.3552 182.645C31.6799 164.97 21.75 140.997 21.75 116C21.75 91.0033 31.6799 67.0305 49.3552 49.3552C67.0305 31.6799 91.0033 21.75 116 21.75C140.997 21.75 164.97 31.6799 182.645 49.3552C200.32 67.0305 210.25 91.0033 210.25 116ZM0 116C0 146.765 12.2214 176.27 33.9756 198.024C55.7298 219.779 85.2349 232 116 232C146.765 232 176.27 219.779 198.024 198.024C219.779 176.27 232 146.765 232 116C232 85.2349 219.779 55.7298 198.024 33.9756C176.27 12.2214 146.765 0 116 0C85.2349 0 55.7298 12.2214 33.9756 33.9756C12.2214 55.7298 0 85.2349 0 116ZM105.125 54.375V116C105.125 119.625 106.937 123.023 109.973 125.062L153.473 154.062C158.458 157.416 165.209 156.056 168.562 151.027C171.916 145.997 170.556 139.291 165.527 135.938L126.875 110.2V54.375C126.875 48.3484 122.027 43.5 116 43.5C109.973 43.5 105.125 48.3484 105.125 54.375Z" fill="#06D6A0"/>
</g>
<defs>
<clipPath id="clip0_40_8">
<rect width="232" height="232" fill="white"/>
</clipPath>
</defs>
</svg>
