<svg width="88" height="68" viewBox="0 0 88 68" fill="none" xmlns="http://www.w3.org/2000/svg">
<path d="M82.2465 30.7647C80.7834 31.2962 79.4245 32.0086 78.2573 33.0552C78.208 33.0935 78.1641 33.1374 78.1148 33.1757L78.1258 33.1702C78.0874 33.2086 78.0436 33.247 78.0052 33.2853L78.0107 33.2798C77.9724 33.3182 77.934 33.3565 77.8902 33.4004L77.8956 33.3949C77.8299 33.4771 77.7093 33.5538 77.7093 33.636C77.7258 34.9676 77.7532 36.2991 77.7806 37.6306C77.7806 37.6635 77.7806 37.6909 77.7641 37.7238C77.7367 37.9868 77.7039 38.2498 77.6765 38.5129C77.2984 40.8472 76.3504 42.8692 74.4764 44.3925C74.427 44.4308 74.3832 44.4747 74.3339 44.513H74.3394C74.2736 44.5624 74.2079 44.6172 74.1366 44.6665L74.1476 44.6555C74.0983 44.6884 74.049 44.7158 73.9996 44.7487L74.0106 44.7432C73.9613 44.798 73.9065 44.8473 73.8572 44.9021L73.8133 44.9295C73.7257 44.9788 73.638 45.0281 73.5503 45.0774H73.5558C73.4791 45.1213 73.4078 45.1651 73.3311 45.2035L73.3421 45.1925C73.1393 45.3185 72.9311 45.4446 72.7284 45.5706L72.6955 45.587C72.6462 45.6035 72.5969 45.6199 72.5475 45.6364L72.553 45.6309C72.279 45.7624 72.0105 45.8884 71.7366 46.0199C71.7201 46.0364 71.7037 46.0419 71.6818 46.0364C71.4571 46.0857 71.2324 46.135 71.0078 46.1843C70.2625 46.3706 69.5118 46.5624 68.7666 46.7487C68.4926 46.7487 68.2132 46.7268 67.9392 46.7597C66.0816 46.9569 64.2295 46.9076 62.3883 46.5569C61.7637 46.4364 61.1335 46.3213 60.5088 46.2062C57.9389 45.4446 55.9334 43.9815 54.6621 41.5814C54.4539 41.1431 54.2511 40.7047 54.0429 40.2663C54.0265 40.2499 54.0265 40.2335 54.0319 40.2115C53.9059 39.5266 53.7854 38.8416 53.6538 38.1622C53.6429 38.0964 53.5442 38.0471 53.4894 37.9923C53.4785 37.8718 53.4675 37.7457 53.4566 37.6252C53.4895 37.5046 53.5552 37.3841 53.5442 37.269C53.5004 36.3923 53.4401 35.521 53.3853 34.6333C53.336 34.9018 53.2867 35.1648 53.2374 35.4224C53.2264 34.836 53.2155 34.2497 53.2045 33.6634C53.1059 33.5374 53.0346 33.3675 52.9031 33.2908C52.1305 32.8305 51.7031 32.1401 51.5606 31.2798C51.5058 30.951 51.5004 30.5346 51.9716 30.403C52.0264 30.4085 52.0812 30.4195 52.136 30.4195C60.191 30.4195 68.2406 30.4195 76.2956 30.414C76.449 30.414 76.6024 30.3428 76.7559 30.2989C78.2354 29.3674 79.7094 28.4413 81.1889 27.5098C81.2656 27.4769 81.3423 27.4386 81.4245 27.4057L81.4135 27.4112C81.6163 27.318 81.819 27.2249 82.0163 27.1317C82.0163 27.1317 82.0547 27.1153 82.0601 27.1153C82.1423 27.0988 82.23 27.0824 82.3122 27.066L82.3013 27.0714C82.4273 27.0166 82.5533 26.9564 82.6793 26.9016C82.6958 26.8851 82.7177 26.8851 82.7396 26.8961C82.893 26.8851 83.052 26.8906 83.2054 26.8687C84.1698 26.7207 85.1397 26.5618 86.1041 26.4084L86.0931 26.4029C86.4712 26.4906 86.8548 26.5837 87.2329 26.6714C87.2548 26.6714 87.2713 26.6769 87.2877 26.6988C87.3425 26.781 87.4028 26.8632 87.4576 26.9454C88.1315 27.3893 88.1863 28.6057 87.5726 29.3016C87.5233 29.3455 87.4795 29.3838 87.4356 29.4277C87.0466 29.5373 86.6685 29.6743 86.274 29.751C85.4246 29.9208 84.5643 30.0195 83.7259 30.2167C83.2109 30.3373 82.7287 30.5948 82.23 30.7921L82.2465 30.7647ZM58.3389 34.5018H58.3444C57.9992 34.184 57.6266 34.184 57.2375 34.4196C56.7443 34.8196 56.4539 35.3237 56.4539 35.9758C56.4539 36.4799 56.4649 36.9895 56.4704 37.4937C56.5416 37.8991 56.6183 38.3101 56.6895 38.7156C56.9197 39.3677 57.0841 40.0581 57.4019 40.6664C57.654 41.1486 58.0923 41.5321 58.4485 41.9595C59.0458 42.8253 60.2842 43.4116 60.9691 43.1979C60.5088 42.5678 60.0321 41.9212 59.5609 41.2746L58.5636 38.2772C58.5307 37.9046 58.5033 37.5265 58.4704 37.1539L58.454 34.7265C58.4485 34.6991 58.4485 34.6717 58.454 34.6443C58.4156 34.6004 58.3773 34.5511 58.3389 34.5073V34.5018Z" fill="#17773A"/>
<path d="M68.2294 55.3682C68.339 55.675 68.4486 55.9819 68.5637 56.2887C68.5418 56.3326 68.487 56.3874 68.4979 56.4202C68.9637 57.9162 69.4349 59.4066 69.9062 60.9026C70.0322 61.2861 70.1637 61.6752 70.2898 62.0588C70.3391 62.0478 70.3884 62.0369 70.4322 62.0259C70.4925 61.8067 70.5473 61.5875 70.6076 61.3738C70.6953 61.2478 70.8158 61.1327 70.8596 60.9957C71.1391 60.0861 71.4186 59.171 71.6761 58.2504C71.8789 57.5271 72.0432 56.7983 72.2241 56.075C72.4159 55.3901 72.6022 54.7051 72.7994 54.0202C72.8213 53.9435 72.9145 53.8887 72.9803 53.8229C73.846 53.79 74.7118 53.7791 75.5721 53.7133C76.0434 53.675 76.2571 53.8558 76.3009 54.2996V54.349C76.2297 54.5572 76.1584 54.7654 76.0927 54.9736L76.0817 55.0229C75.9886 55.2586 75.8954 55.4997 75.8023 55.7353L75.8132 55.7243C75.7968 55.8065 75.7803 55.8887 75.7639 55.9709C75.7639 55.9928 75.7639 56.0093 75.7475 56.0257C75.6762 56.1024 75.5612 56.1682 75.5338 56.2613C74.9694 57.9655 74.4104 59.6751 73.857 61.3848C73.8241 61.4944 73.857 61.6259 73.868 61.7464L73.857 61.7903C73.7912 61.856 73.6926 61.9108 73.6652 61.9875C73.4077 62.7328 73.1446 63.478 72.9145 64.2287C72.7063 64.9082 72.5419 65.5986 72.3611 66.2836L72.372 66.2726C72.3282 66.3493 72.2843 66.4205 72.246 66.4973C72.2076 66.5356 72.1638 66.574 72.1254 66.6123L72.1309 66.6068C71.0898 66.6068 70.0432 66.6068 69.0021 66.6068L69.013 66.6123C68.9637 66.5959 68.9144 66.5794 68.8651 66.563L68.8267 66.5356C68.7993 66.5082 68.7774 66.4863 68.75 66.4589C68.7226 66.4534 68.7062 66.437 68.7062 66.4041C68.7062 66.3548 68.6952 66.3055 68.6952 66.2562C68.3938 65.3356 68.0979 64.4095 67.7965 63.4889C67.7472 63.4177 67.7034 63.352 67.6541 63.2807L67.6596 63.2917C67.6596 63.1821 67.6924 63.0615 67.6596 62.9629C67.3417 61.9437 67.0184 60.93 66.6842 59.9162C66.6568 59.834 66.5472 59.7738 66.4705 59.708C66.3883 59.3792 66.3006 59.0505 66.2184 58.7217C66.1965 58.6614 66.1691 58.6011 66.1472 58.5409C66.1033 58.6011 66.0595 58.6614 66.0157 58.7217L66.0211 58.7107C65.7307 59.6477 65.4348 60.5793 65.1444 61.5163C64.8376 62.3985 64.5362 63.2807 64.2293 64.1629C64.0101 64.9027 63.7909 65.637 63.5718 66.3767C63.5334 66.4151 63.4951 66.4589 63.4567 66.4973C63.38 66.5301 63.2978 66.563 63.2211 66.5959C62.3498 67.0343 61.4238 66.8041 60.5306 66.7767C60.2895 66.7712 59.9607 66.3767 59.8566 66.0918C59.5278 65.1986 59.2867 64.278 59.0072 63.3684C59.0292 63.3246 59.084 63.2698 59.073 63.2369C58.7333 62.1684 58.3881 61.0944 58.0374 60.0313C58.0154 59.9601 57.9223 59.9108 57.862 59.8505C57.5004 58.6833 57.1442 57.5107 56.7825 56.3435C56.5743 55.4997 56.3661 54.6503 56.1633 53.801C56.1633 53.7791 56.1743 53.7626 56.1962 53.7572C56.2839 53.7462 56.3716 53.7352 56.4592 53.7243C57.3908 53.7462 58.3223 53.7736 59.2593 53.7955C59.4456 54.1352 59.6812 54.4585 59.8018 54.8202C60.0867 55.6476 60.3224 56.4915 60.5744 57.3299C60.9799 58.7765 61.3909 60.2286 61.7964 61.6752C61.895 61.7245 61.9991 61.7793 62.0977 61.8286C62.3279 61.1601 62.58 60.4916 62.7827 59.8121C62.9306 59.319 63.0128 58.8039 63.1279 58.2998C63.5005 56.9901 63.8786 55.686 64.2512 54.3764C64.317 54.2284 64.3882 54.0859 64.454 53.938C64.4923 53.8996 64.5307 53.8613 64.5691 53.8229C65.0239 53.79 65.4732 53.7352 65.928 53.7298C66.5253 53.7188 67.1226 53.7407 67.7253 53.7517C67.7472 53.7517 67.7582 53.7681 67.7691 53.79C67.7965 53.8229 67.8239 53.8558 67.8513 53.8887C67.8513 53.8887 67.8568 53.9051 67.8568 53.9106C67.9171 54.1079 67.9774 54.2996 68.0431 54.4969L68.0377 54.4859C68.0705 54.601 68.1089 54.7216 68.1418 54.8366V54.8257C68.1801 55.0065 68.213 55.1928 68.2514 55.3736L68.2294 55.3682Z" fill="#17773A"/>
<path d="M15.2581 33.2799C14.9293 33.6525 14.6006 34.0306 14.2663 34.3922C13.8827 34.8087 13.6745 34.8087 13.2471 34.4141C12.195 33.4552 11.0059 32.847 9.53741 32.8141C7.09898 32.7648 4.8633 34.4251 4.16191 36.8581C3.12626 40.4527 5.32358 43.9048 8.84149 44.398C10.321 44.6062 11.5703 44.0857 12.7485 43.2856C12.9019 43.1815 13.0553 43.0774 13.1868 42.9459C13.532 42.5897 13.8444 42.6938 14.1403 42.9897C14.3375 43.1815 14.5184 43.3897 14.7102 43.5925C14.7485 43.6309 14.7869 43.6692 14.8252 43.7076C14.8636 43.7459 14.9019 43.7843 14.9403 43.8226C15.0115 43.8939 15.0828 43.9706 15.154 44.0418C15.1924 44.0802 15.2252 44.1185 15.2636 44.1569C15.3348 44.2336 15.4115 44.3048 15.4828 44.3816C15.5376 44.4364 15.5924 44.4857 15.6472 44.5405C15.6472 44.5405 15.6581 44.5569 15.6527 44.5569C15.68 44.5953 15.7129 44.6391 15.7403 44.6775L15.7239 44.6994L15.7348 44.672C15.7732 44.7103 15.8116 44.7487 15.8499 44.7871C15.8828 44.8309 15.9157 44.8747 15.9485 44.9186C15.8444 45.1597 15.8116 45.4775 15.6362 45.6199C14.091 46.8748 12.3484 47.6364 10.3319 47.8337C7.85516 48.0803 5.614 47.5104 3.64682 46.0364C1.53169 44.4528 0.331657 42.2938 0.0576764 39.6362C-0.205345 37.1211 0.43577 34.8416 1.88787 32.8086C3.17558 31.0058 5.03316 29.9921 7.14829 29.5044C10.2881 28.7756 13.132 29.3948 15.5814 31.5647C15.7239 31.6908 15.8225 31.8771 15.9376 32.036C15.9376 32.1839 15.9376 32.3319 15.9321 32.4798C15.8225 32.6278 15.7129 32.7757 15.6033 32.9292C15.5266 33.0004 15.4554 33.0771 15.3787 33.1484C15.3403 33.1867 15.3074 33.2251 15.2691 33.2634L15.2581 33.2799Z" fill="#E8B62E"/>
<path d="M46.3933 66.4863C44.8425 66.0041 43.8178 64.9246 43.0507 63.5492C42.9411 63.352 42.8808 63.1218 42.7986 62.9081C42.7822 62.7656 42.7767 62.6177 42.7438 62.4752C42.4973 61.4615 42.2507 60.4478 42.4699 59.3902C42.6068 58.7107 42.7603 58.0367 42.9082 57.3627L42.9027 57.3737C42.9411 57.297 42.9795 57.2203 43.0178 57.1381L43.0069 57.149C43.0452 57.0723 43.0891 56.9956 43.1274 56.9189L43.1219 56.9298C43.1603 56.8531 43.2041 56.7819 43.2425 56.7052C43.3192 56.5901 43.3904 56.4805 43.4671 56.3654C43.5055 56.3161 43.5493 56.2613 43.5877 56.212C44.2836 55.2202 45.1823 54.475 46.3111 54.0311C46.7659 53.8558 47.2481 53.7462 47.7193 53.6037C47.7467 53.5928 47.7741 53.5818 47.8015 53.5763L47.796 53.5818C49.1605 53.5763 50.5358 53.5051 51.8236 54.1078C53.1606 54.5024 54.1086 55.3791 54.8045 56.5572C54.8812 56.6778 54.9579 56.7983 55.0346 56.9244V56.9189C55.0894 57.0066 55.1442 57.0942 55.2045 57.1819L55.2209 57.2257C55.2483 57.4175 55.2538 57.6203 55.3141 57.7956C55.7744 59.0669 55.9387 60.3601 55.5935 61.6807C55.4291 62.2944 55.2319 62.9026 55.0456 63.5109C54.5579 64.1136 54.1469 64.7986 53.5661 65.2917C52.9743 65.7904 52.2236 66.0918 51.5386 66.4808C51.3797 66.5082 51.2153 66.5301 51.0564 66.563C50.092 66.7822 49.1331 67.0397 48.1303 66.8151C47.5604 66.689 46.9851 66.5849 46.4097 66.4753L46.3933 66.4863ZM50.4646 56.8367L50.2235 56.7216L50.2345 56.7326C49.5879 56.2394 48.4043 56.2449 47.8015 56.7435C47.6645 56.8148 47.5221 56.8805 47.3851 56.9572C46.7604 57.297 46.4755 57.9162 46.0974 58.4696C45.511 59.3244 45.533 60.3163 45.7576 61.1546C45.9932 62.0368 46.4645 62.9903 47.407 63.4451C48.0207 63.7465 48.6509 63.9766 49.3906 63.867C50.3331 63.7246 51.029 63.2314 51.6646 62.5903C51.7085 62.5191 51.7578 62.4478 51.8016 62.3821C51.8345 62.3437 51.8674 62.2999 51.9057 62.256V62.267C51.9386 62.1903 51.977 62.119 52.0208 62.0423C52.0921 61.8944 52.1633 61.7409 52.2345 61.582L52.2236 61.593C52.7222 60.9574 52.6236 60.2231 52.514 59.5107C52.4701 59.2368 52.2784 58.9847 52.1523 58.7272C51.7742 58.2121 51.3961 57.697 51.0181 57.1764C50.903 57.0997 50.7934 57.0175 50.6783 56.9408L50.6893 56.9518C50.6126 56.9134 50.5358 56.8696 50.4591 56.8312L50.4701 56.8422L50.4646 56.8367Z" fill="#18763A"/>
<path d="M22.4748 34.6114C25.8886 34.2662 28.9243 37.5868 29.0613 40.5458C29.2585 44.7761 25.7899 47.6364 22.2775 47.4885C19.2199 47.357 15.8499 45.0501 15.9376 40.7814C16.0088 37.406 18.7705 34.4087 22.4693 34.6114H22.4748ZM25.6036 41.0335C25.6201 39.1321 24.4091 37.7293 22.7433 37.7129C20.8638 37.6964 19.3788 39.1321 19.3569 40.9732C19.3404 42.7705 20.6555 44.3487 22.4857 44.3487C24.2228 44.3487 25.6749 42.8527 25.5981 41.0335H25.6036Z" fill="#E8B52E"/>
<path d="M42.689 41.028C42.963 43.9158 40.3492 47.4885 36.3984 47.3953C32.8421 47.3132 29.916 44.4747 29.916 40.9404C29.916 37.3512 32.7545 34.5237 36.2724 34.458C39.9382 34.3922 42.9191 37.6416 42.689 41.0226V41.028ZM35.0504 38.0745C34.9737 38.1184 34.897 38.1622 34.8203 38.2115C34.5189 38.491 34.2175 38.7704 33.9216 39.0499C33.8449 39.028 33.7134 38.9732 33.7079 38.9896C33.1764 39.8828 32.9243 40.7815 33.1873 41.8664C33.7572 44.2227 37.0724 45.1761 38.7218 43.2199C39.5766 42.2007 39.8615 40.6773 39.1656 39.3622C38.53 38.1567 37.4121 37.4553 35.9271 37.6307C35.6258 37.669 35.3573 37.9321 35.0723 38.0964L35.0504 38.08V38.0745Z" fill="#E8B52D"/>
<path d="M53.2319 33.636C53.2428 34.2224 53.2538 34.8087 53.2647 35.395C53.336 36.1293 53.4072 36.869 53.4784 37.6033C53.4894 37.7238 53.5004 37.8499 53.5113 37.9704L53.4784 38.0142C52.7496 38.8417 52.0209 39.6691 51.2702 40.5184C52.0373 41.428 52.7716 42.2993 53.5058 43.1706C54.4538 44.2994 55.4073 45.4336 56.3498 46.5679C56.684 46.9734 56.6402 47.2638 56.136 47.2967C54.799 47.3844 53.3743 47.7899 52.2894 46.5076C51.0126 45.0008 49.703 43.5213 48.3988 42.0363C48.3769 42.0089 48.2783 42.0472 48.2125 42.0582C48.2125 42.7267 48.2125 43.3897 48.2125 44.0583C48.2125 44.798 48.229 45.5323 48.2125 46.272C48.1906 47.0775 47.9605 47.3241 47.1659 47.3844C46.6344 47.4227 46.0919 47.4337 45.5604 47.3844C45.1275 47.3405 44.7439 47.1488 44.7111 46.6172C44.7385 46.4583 44.7933 46.2994 44.7933 46.1405C44.7933 42.0746 44.7933 38.0142 44.7933 33.9484C44.9522 33.8388 45.1001 33.647 45.2645 33.6415C45.9988 33.6086 46.7385 33.6415 47.4728 33.6196C47.944 33.6086 48.1523 33.8169 48.1468 34.2717C48.1577 34.3155 48.1687 34.3539 48.1797 34.3977C48.1961 34.847 48.2071 35.2909 48.2235 35.7402C48.2235 35.8882 48.2235 36.0361 48.2235 36.1841C48.2235 36.2936 48.2235 36.4087 48.2235 36.5183C48.2235 37.3677 48.2235 38.2225 48.2235 39.0718C48.2235 39.1211 48.2345 39.165 48.2399 39.2143C48.2838 39.2143 48.3221 39.2198 48.366 39.2252L48.3879 39.1924C48.4536 39.1102 48.5139 39.0335 48.5797 38.9513C50.1304 37.1813 51.6866 35.4169 53.2373 33.647L53.2319 33.636Z" fill="#E8B52D"/>
<path d="M31.9052 52.0256C31.834 52.0256 31.7682 52.0256 31.697 52.0201C31.297 51.8612 30.9572 51.905 30.6942 52.2777L30.6997 52.2722C30.612 52.3599 30.5243 52.453 30.4367 52.5407L30.4147 52.5681C30.3599 52.6174 30.3051 52.6722 30.2504 52.7215L30.2558 52.7106C29.6531 53.2585 29.7955 54.0147 29.6914 54.7051C29.6257 55.1325 29.7955 55.2805 30.2394 55.2805C31.2476 55.2805 32.2614 55.3243 33.2696 55.3846C33.4559 55.3956 33.6258 55.5928 33.8066 55.7024C33.7902 56.3928 33.7737 57.0778 33.7518 57.7682L33.7189 57.7463C32.4915 57.7354 31.2641 57.7189 30.0366 57.7134C29.9599 57.7134 29.8887 57.7901 29.812 57.834C29.812 57.8723 29.801 57.9052 29.7791 57.9326C29.7517 58.1299 29.6969 58.3217 29.6969 58.5189C29.6969 61.0998 29.6969 63.6753 29.6969 66.2562C29.6969 66.3383 29.6969 66.4151 29.6969 66.4973L29.7079 66.4918C29.4448 66.5575 29.1763 66.6781 28.9133 66.6781C28.0969 66.6781 27.2804 66.6288 26.4639 66.6014C26.4256 66.4151 26.3872 66.2287 26.3489 66.037C26.3489 63.3355 26.3434 60.6341 26.3379 57.9326C26.168 57.8614 26.0037 57.7299 25.8338 57.7189C25.3023 57.686 24.7707 57.7025 24.2447 57.7025C24.2063 57.6696 24.1625 57.6312 24.1241 57.5984C24.1241 56.9737 24.1241 56.3435 24.1241 55.7079C24.1899 55.3353 24.442 55.264 24.7707 55.2586C25.2255 55.2531 25.6804 55.2038 26.1352 55.1764C26.1626 55.1654 26.1954 55.1545 26.2283 55.1545C26.2393 54.6339 26.2557 54.1133 26.2667 53.5873C26.2667 53.5106 26.2722 53.4339 26.2776 53.3571C26.2941 53.2914 26.316 53.2256 26.3324 53.1599C26.5242 51.5324 27.2201 50.2612 28.8037 49.5981C28.8695 49.6146 28.9352 49.6529 28.9955 49.6474C29.8175 49.5214 30.6394 49.3077 31.4668 49.2803C32.2778 49.2474 33.0998 49.4009 33.9162 49.4721L33.9053 49.4666C34.0148 49.5105 34.1299 49.5488 34.2395 49.5927C34.2395 49.5927 34.2285 49.5872 34.234 49.5872C34.3107 49.6255 34.3875 49.6694 34.4587 49.7077C34.497 49.8228 34.5354 49.9324 34.5738 50.0475C34.5738 50.5242 34.5738 50.9954 34.5738 51.4722C34.5738 52.19 34.5135 52.2448 33.8011 52.2831C33.1655 52.1955 32.5299 52.1078 31.8942 52.0256H31.9052Z" fill="#17773A"/>
<path d="M36.6013 53.8394C36.6013 53.6859 36.6013 53.538 36.6013 53.3845C36.6342 53.1928 36.6835 53.001 36.6945 52.8092C36.7328 51.7352 36.7657 50.6612 36.7931 49.5872L36.7876 49.5981C36.9027 49.5653 37.0123 49.5269 37.1273 49.494C37.8671 49.494 38.6014 49.494 39.3411 49.505C40.0315 49.5105 40.1411 49.6255 40.1411 50.3105C40.1411 54.1846 40.1411 58.0641 40.1411 61.9382L40.0315 66.6123C39.248 66.6123 38.4699 66.6123 37.6863 66.6178C37.4287 66.6178 37.1657 66.6178 36.9082 66.6123C36.8753 66.2835 36.8095 65.9603 36.8095 65.6315C36.7986 61.8889 36.7986 58.1408 36.7821 54.3983C36.7821 54.212 36.6616 54.0257 36.5958 53.8448L36.6013 53.8394Z" fill="#17773A"/>
<path d="M73.2215 4.62698C73.4023 5.51468 73.5831 6.40786 73.7694 7.29556C73.7694 8.0353 73.7694 8.77505 73.7694 9.50932C73.742 9.62439 73.7091 9.73946 73.6817 9.85453C73.6434 9.73398 73.5941 9.61343 73.5667 9.49288C73.4735 9.02711 73.2489 8.93396 72.7831 9.05999C72.5255 9.13122 72.2406 9.07095 71.9502 9.07095C71.8954 9.20246 71.7913 9.46 71.6872 9.71206C71.5337 9.64083 71.3803 9.56959 71.1885 9.48192C70.7885 10.1614 70.2844 9.30657 69.857 9.55863C69.8351 9.2189 69.8131 8.923 69.7967 8.6271C69.7693 8.61066 69.7419 8.58874 69.7145 8.57779C69.7035 8.57779 69.6816 8.58874 69.6707 8.5997C69.2707 9.16958 68.8652 9.73946 68.4652 10.3039C68.3062 10.2491 68.1419 10.1997 67.9829 10.145C67.9665 10.1997 67.9501 10.2545 67.9391 10.3093C68.0103 10.4354 68.0761 10.5614 68.1473 10.6874C68.1035 10.7477 68.0651 10.808 68.0213 10.8683C67.9994 10.8463 67.9829 10.8244 67.961 10.797C67.9501 10.8244 67.9391 10.8518 67.9281 10.8792L67.9172 10.8573C67.8788 10.934 67.8405 11.0053 67.7966 11.082H67.8021C67.3802 10.9395 67.2213 10.7148 67.6432 10.3422C67.0405 10.1724 66.8267 10.6929 66.4487 10.8902C66.2843 10.9779 65.9829 11.0217 65.8623 10.934C65.3473 10.5395 65.3582 10.5176 65.1336 11.1368C64.8267 11.1368 64.4705 11.0381 64.2294 11.1587C63.7527 11.3998 62.9691 11.082 62.8102 11.9149C62.8102 11.9423 62.6787 11.9587 62.6075 11.9587C62.0047 11.9587 61.3965 11.9587 60.7937 11.9587C61.5773 11.1368 62.3006 10.2436 63.1554 9.50932C64.3116 8.52299 65.5719 7.65721 66.7884 6.74211C67.3583 7.02157 67.9062 6.81883 68.2515 6.07908C68.4652 5.62427 68.783 5.5366 69.2049 5.52016C69.4186 5.5092 69.7419 5.55304 69.8296 5.43249C70.0981 5.05439 70.3721 5.08179 70.7228 5.25166C70.7885 5.28454 70.92 5.27906 70.9803 5.23522C71.3091 4.98864 71.6214 4.72014 71.8625 4.52835C72.3612 4.56671 72.794 4.59959 73.2269 4.63246L73.2215 4.62698Z" fill="#94B534"/>
<path d="M72.8378 13.3231C72.1091 15.2081 70.8378 16.6602 69.2487 17.8657C69.3035 17.7013 69.3638 17.5314 69.4734 17.2081C68.4706 17.367 67.5555 17.5095 66.6404 17.6575C66.6404 17.6465 66.6459 17.4986 66.6623 17.2739C66.3007 17.4273 66.0102 17.5698 65.7034 17.6684C65.2212 17.8273 64.7499 17.5369 64.6732 17.0547V17.0657C64.7116 16.989 64.7499 16.9122 64.7938 16.8355V16.8465C64.8266 16.7698 64.865 16.6931 64.9034 16.6163H64.8979C64.9746 16.4903 65.0513 16.3643 65.1225 16.2382C65.9335 15.1807 66.75 14.1176 67.561 13.0601C67.6322 13.1751 67.676 13.3505 67.7692 13.3888C68.4268 13.63 69.1007 13.5861 69.7857 13.4765C70.5528 13.3505 71.3145 13.0601 72.12 13.3505C72.3337 13.4272 72.6022 13.345 72.8433 13.3341L72.8378 13.3231Z" fill="#7AAA39"/>
<path d="M60.7937 11.9532C61.3964 11.9532 62.0047 11.9532 62.6074 11.9532C62.6787 11.9532 62.8047 11.9368 62.8102 11.9094C62.9691 11.0765 63.7581 11.3943 64.2294 11.1532C64.4705 11.0326 64.8267 11.1313 65.1335 11.1313C65.3637 10.5121 65.3472 10.534 65.8623 10.9285C65.9829 11.0217 66.2842 10.9723 66.4486 10.8847C66.8212 10.6874 67.0404 10.1723 67.6432 10.3367C67.2213 10.7148 67.3802 10.934 67.8021 11.0819C67.0404 11.7833 66.2788 12.4847 65.5171 13.1861C65.4623 13.2245 65.4075 13.2628 65.3472 13.3012H65.3582C65.3198 13.3395 65.2815 13.3779 65.2431 13.4162L65.2486 13.4108C65.2102 13.4491 65.1719 13.4875 65.128 13.5258L65.1335 13.5204C65.0952 13.5642 65.0568 13.608 65.0184 13.6573C64.9143 13.7615 64.8102 13.8656 64.7061 13.9697C64.6623 14.008 64.613 14.0464 64.5691 14.0848L64.5746 14.0793L64.454 14.1998L64.4595 14.1944C64.4212 14.2327 64.3828 14.2711 64.339 14.3149L64.3445 14.3094C64.3061 14.3478 64.2677 14.3861 64.2294 14.43H64.2403C64.1691 14.5067 64.0979 14.5834 64.0212 14.6601V14.6492C63.9718 14.7259 63.9335 14.8081 63.8951 14.8848C63.8622 14.9177 63.8349 14.9505 63.802 14.9834C63.4348 14.8574 62.9417 14.5231 62.7334 14.6546C62.1745 14.9999 61.7142 15.2738 61.3033 14.8793C60.8539 15.093 60.4868 15.4218 60.1745 15.3779C59.6375 15.3012 59.4238 15.3506 59.4183 15.9314C59.4183 16.1232 59.3525 16.6547 58.9032 16.1999C59.1553 14.6272 59.7854 13.219 60.7827 11.9751L60.7937 11.9532Z" fill="#88B036"/>
<path d="M72.8379 13.3231C72.5968 13.3341 72.3283 13.4163 72.1146 13.3395C71.3091 13.0491 70.5474 13.3395 69.7803 13.4656C69.0953 13.5752 68.4213 13.6245 67.7638 13.3779C67.6651 13.3395 67.6213 13.1642 67.5555 13.0491V13.0601C67.5939 13.0217 67.6323 12.9834 67.6706 12.9395H67.6651C67.7035 12.9067 67.7419 12.8683 67.7802 12.8299H67.7692C67.846 12.7203 67.9227 12.6108 67.9994 12.4957V12.5012C68.0377 12.4628 68.0761 12.4244 68.1145 12.3806L68.1035 12.3861C68.1419 12.3094 68.1857 12.2381 68.2241 12.1614V12.1669L68.3391 12.0299C68.8268 10.8902 69.309 9.7504 69.7967 8.61612C69.8186 8.91202 69.8351 9.20792 69.857 9.54765C70.2844 9.29011 70.7885 10.1504 71.1885 9.47094C71.3803 9.55861 71.5337 9.62985 71.6872 9.70108C71.7913 9.44902 71.8954 9.19148 71.9502 9.05997C72.2406 9.05997 72.531 9.11476 72.7831 9.04901C73.2489 8.92298 73.468 9.01613 73.5667 9.4819C73.5941 9.60793 73.6434 9.723 73.6817 9.84355C73.5064 10.7312 73.331 11.6189 73.1502 12.5066C73.0461 12.7697 72.942 13.0382 72.8324 13.3012V13.3067L72.8379 13.3231Z" fill="#88B036"/>
<path d="M58.9142 16.178C59.369 16.6328 59.4293 16.1013 59.4293 15.9095C59.4403 15.3287 59.654 15.2793 60.1855 15.3561C60.4978 15.3999 60.865 15.0711 61.3143 14.8574C61.7253 15.2519 62.1856 14.978 62.7445 14.6327C62.9527 14.5012 63.4513 14.841 63.813 14.9615C63.4349 15.5533 63.0623 16.1451 62.6842 16.7314C62.6458 16.7698 62.6075 16.8136 62.5691 16.852L62.5801 16.841C62.5417 16.9561 62.5034 17.0712 62.465 17.1808H62.476C62.2842 17.6411 62.0157 18.0849 61.9335 18.5616C61.8677 18.9452 61.6814 19.0712 61.38 19.126C61.002 19.1973 60.6184 19.2247 60.2348 19.274C60.191 19.2192 60.1471 19.1589 60.1033 19.1041C60.0923 19.1151 60.0814 19.126 60.0649 19.1425C60.1197 19.1863 60.18 19.2301 60.2348 19.274C59.6211 19.4384 59.2923 19.9315 58.9197 20.3863C58.7115 18.9781 58.4649 17.5753 58.9087 16.167L58.9142 16.178Z" fill="#7AAA39"/>
<path d="M64.6623 17.0547C64.739 17.5369 65.2102 17.8274 65.6924 17.6685C65.9993 17.5698 66.2842 17.4273 66.6514 17.2739C66.6404 17.5041 66.6349 17.652 66.6295 17.6575C67.5445 17.515 68.4596 17.3671 69.4624 17.2082C69.3528 17.5315 69.298 17.6958 69.2377 17.8657C68.4651 18.6 67.687 19.3397 66.9144 20.074C66.8322 20.1781 66.75 20.2822 66.6678 20.3918L66.6623 20.4028C66.6294 20.4411 66.5966 20.4795 66.5637 20.5233C66.487 20.6329 66.4157 20.7425 66.339 20.8521C66.2678 20.9617 66.1911 21.0768 66.1199 21.1864C66.0815 21.2631 66.0431 21.3343 66.0048 21.411C65.9719 21.4877 65.9335 21.5645 65.9007 21.6412V21.6302C65.7965 21.9316 65.6924 22.2384 65.5938 22.5398L65.6157 22.5508C65.3801 22.7152 65.2376 22.6275 65.0623 22.4248C64.7719 22.085 64.4595 21.6138 63.8896 22.4083C63.8896 21.8713 63.9006 21.5316 63.8896 21.1918C63.8677 20.7042 63.8239 20.2219 63.791 19.7343C63.8951 19.2521 63.9938 18.7699 64.0979 18.2876C64.2842 17.8767 64.465 17.4657 64.6513 17.0547H64.6623Z" fill="#6BA33A"/>
<path d="M73.2214 4.62695C72.7885 4.59407 72.3611 4.56119 71.857 4.52283C71.6213 4.71462 71.3035 4.98312 70.9747 5.2297C70.9145 5.27354 70.7884 5.27902 70.7172 5.24614C70.3665 5.07079 70.0925 5.0434 69.824 5.42697C69.7418 5.54204 69.4185 5.50368 69.1993 5.51464C68.7774 5.53108 68.4596 5.61876 68.2459 6.07356C67.9007 6.81331 67.3472 7.01058 66.7828 6.7366C67.4185 6.05165 68.1199 5.41601 68.6733 4.67078C69.5994 3.42143 70.0268 2.00221 69.7035 0.424084C69.6761 0.298053 69.709 0.0569492 69.7802 0.0295511C69.9117 -0.0197654 70.1309 -0.00880623 70.2295 0.073388C71.5775 1.21315 72.6022 2.57757 73.1008 4.29817C73.1173 4.33105 73.1337 4.36392 73.1501 4.3968C73.1721 4.47352 73.194 4.55023 73.2159 4.63243L73.2214 4.62695Z" fill="#9FB935"/>
<path d="M63.8019 19.7343C63.8348 20.2219 63.8787 20.7041 63.9006 21.1918C63.917 21.5316 63.9006 21.8713 63.9006 22.4083C64.4705 21.6138 64.7773 22.085 65.0732 22.4247C65.2486 22.6275 65.391 22.7152 65.6266 22.5508C65.2376 23.844 65.5609 25.0769 66.0212 26.2769C66.2623 26.9071 66.6185 27.4989 66.9034 28.1126C66.9582 28.2277 66.9472 28.3756 66.9637 28.5126C66.8376 28.5126 66.7061 28.551 66.5856 28.5236C65.276 28.1948 64.1526 27.4769 63.0677 26.7153C62.5635 26.3646 62.0813 25.9646 61.6539 25.5262C61.232 25.0988 60.8923 24.5947 60.5197 24.1234C60.7553 24.1234 61.0293 24.0303 61.2101 24.1234C61.5827 24.3262 62.3937 24.3426 62.7718 24.0686C62.8868 24.2549 63.0019 24.4467 63.117 24.633V24.6221C63.117 24.6549 63.1279 24.6933 63.1389 24.7207C63.506 25.2084 63.8732 25.7016 64.2348 26.1892C64.4376 26.4523 64.6403 26.7153 64.8705 27.0112C65.1061 26.7427 65.2705 26.5564 65.4568 26.3427C65.2376 26.0194 65.0239 25.7125 64.8157 25.4002C64.6239 24.9892 64.4266 24.5837 64.2348 24.1727C64.1965 24.096 64.1636 24.0193 64.1252 23.9426V23.9481C64.0869 23.8714 64.0485 23.7946 64.0102 23.7234L64.0211 23.7125C63.9444 23.4166 63.8677 23.1207 63.7965 22.8248C63.7581 22.7152 63.7143 22.611 63.6759 22.5015C63.6375 22.1124 63.6047 21.7234 63.5663 21.3343C63.5992 21.3288 63.6211 21.3069 63.6266 21.2685C63.6814 20.7535 63.7362 20.2439 63.791 19.7288L63.8019 19.7343Z" fill="#589A3D"/>
<path d="M62.7719 24.0686C62.3938 24.3426 61.5828 24.3262 61.2102 24.1234C61.0293 24.0248 60.7554 24.1179 60.5197 24.1234V24.1125C60.4869 24.0632 60.454 24.0193 60.4211 23.97C59.632 22.907 59.1334 21.7124 58.9197 20.4083C59.2868 19.9589 59.6211 19.4603 60.2348 19.2959C60.6184 19.2521 61.0019 19.2192 61.38 19.1534C61.6759 19.0986 61.8677 18.9726 61.9335 18.589C62.0157 18.1123 62.2896 17.6684 62.4759 17.2082C62.3883 17.526 62.3061 17.8493 62.2184 18.1671C61.8513 19.3945 61.7581 20.6274 62.1088 21.8768V21.8658C62.1198 21.9754 62.1307 22.0795 62.1417 22.1891C62.1691 22.2658 62.1965 22.3426 62.2184 22.4247C62.3992 22.9782 62.5855 23.5316 62.7664 24.0851L62.7719 24.0686Z" fill="#6BA33A"/>
<path d="M76.7832 30.2715C76.6298 30.3099 76.4763 30.3866 76.3229 30.3866C68.2679 30.3921 60.2183 30.3921 52.1633 30.3921C52.1085 30.3921 52.0537 30.3811 51.9989 30.3756C52.229 30.3428 52.4592 30.2825 52.6839 30.2825C60.717 30.277 68.7446 30.2715 76.7777 30.2715H76.7832Z" fill="#385636"/>
<path d="M36.6012 53.8394C36.667 54.0257 36.7875 54.2065 36.7875 54.3928C36.8039 58.1354 36.8039 61.8834 36.8149 65.626C36.8149 65.9548 36.8807 66.2781 36.9135 66.6069C36.8423 66.3986 36.7108 66.1904 36.7108 65.9767C36.6944 63.9492 36.7053 61.9218 36.6889 59.8943C36.6724 57.8724 36.6341 55.8559 36.6067 53.8339L36.6012 53.8394Z" fill="#245831"/>
<path d="M40.141 61.9328C40.141 58.0587 40.141 54.1791 40.141 50.305C40.141 49.6201 40.0314 49.505 39.3409 49.4995C38.6012 49.494 37.8669 49.494 37.1272 49.4886C37.0614 49.4886 36.9902 49.4831 36.9244 49.4776C37.8724 49.4502 38.8204 49.3899 39.7684 49.4228C39.9382 49.4283 40.2286 49.8173 40.2286 50.0256C40.2506 53.9928 40.2286 57.96 40.2286 61.9273C40.2012 61.9273 40.1738 61.9273 40.141 61.9273V61.9328Z" fill="#385636"/>
<path d="M44.7932 33.9374C44.7932 38.0033 44.7932 42.0636 44.7932 46.1295C44.7932 46.2884 44.7384 46.4473 44.711 46.6062C44.7 44.9788 44.6891 43.3514 44.6836 41.7239C44.6836 39.3184 44.6836 36.9128 44.6836 34.5073C44.6836 34.3155 44.7494 34.1237 44.7877 33.9374H44.7932Z" fill="#E8B654"/>
<path d="M60.5251 46.1843C61.1498 46.2994 61.78 46.4145 62.4046 46.535C64.2458 46.8857 66.0924 46.935 67.9555 46.7378C68.2295 46.7104 68.5089 46.7323 68.7829 46.7268C68.5089 46.7925 68.2404 46.8912 67.961 46.9131C65.4349 47.1597 62.9416 47.0337 60.5197 46.1788L60.5251 46.1843Z" fill="#245831"/>
<path d="M55.0292 63.5273C55.21 62.9191 55.4127 62.3108 55.5771 61.6971C55.9278 60.371 55.7634 59.0833 55.2977 57.8121C55.2319 57.6312 55.2319 57.434 55.2045 57.2422C56.147 59.3683 56.1799 61.467 55.0292 63.5328V63.5273Z" fill="#3C663F"/>
<path d="M40.141 61.9327C40.1684 61.9327 40.1958 61.9327 40.2286 61.9327C40.2286 63.3136 40.2451 64.6945 40.2341 66.0753C40.2341 66.2507 40.1026 66.426 40.0314 66.6014L40.141 61.9272V61.9327Z" fill="#1A663D"/>
<path d="M73.8572 61.741C73.8572 61.6204 73.8133 61.4834 73.8462 61.3793C74.3942 59.6697 74.9531 57.96 75.523 56.2559C75.5558 56.1627 75.6654 56.097 75.7367 56.0203C75.112 57.9272 74.4818 59.8341 73.8572 61.741Z" fill="#38633B"/>
<path d="M33.8066 55.7134C33.6313 55.6038 33.456 55.4065 33.2696 55.3956C32.2614 55.3298 31.2477 55.2915 30.2394 55.2915C29.7956 55.2915 29.6257 55.1435 29.6915 54.7161C29.8011 54.0257 29.6586 53.2695 30.2559 52.7215C30.0641 53.5051 29.8778 54.2832 29.6641 55.1654C30.7983 55.1654 31.7682 55.16 32.7326 55.1654C33.0011 55.1654 33.2861 55.1874 33.5327 55.286C33.6861 55.3463 33.7792 55.5654 33.8998 55.7134C33.8669 55.7134 33.834 55.7134 33.8012 55.7134H33.8066Z" fill="#3C663F"/>
<path d="M29.7024 66.2616C29.7024 63.6807 29.7024 61.1053 29.7024 58.5244C29.7024 58.3272 29.7572 58.1354 29.7846 57.9381C29.801 58.0861 29.812 58.234 29.8284 58.382C29.8284 61.0122 29.8284 63.6424 29.8284 66.2726L29.7955 66.2616C29.7627 66.2616 29.7298 66.2616 29.7024 66.2616Z" fill="#1C4F2B"/>
<path d="M26.3488 57.9381C26.3488 60.6396 26.3543 63.341 26.3598 66.0425C26.3324 66.0425 26.2995 66.0425 26.2721 66.0425C26.2612 64.9301 26.2447 63.8177 26.2338 62.7054C26.2338 61.1492 26.2338 59.5984 26.2338 58.0422C26.2557 58.0093 26.2557 57.971 26.2392 57.9326C26.2776 57.9326 26.316 57.9326 26.3488 57.9326V57.9381Z" fill="#1C4F2B"/>
<path d="M29.8284 66.2726C29.8284 63.6424 29.8284 61.0122 29.8284 58.382C29.8558 58.5409 29.916 58.6998 29.916 58.8532C29.927 61.1711 29.927 63.489 29.9215 65.8014C29.9215 65.9603 29.8612 66.1137 29.8284 66.2726Z" fill="#DFEADF"/>
<path d="M72.2242 56.0696C72.0433 56.7984 71.8789 57.5271 71.6762 58.245C71.4187 59.1655 71.1447 60.0806 70.8597 60.9903C70.8159 61.1273 70.6953 61.2423 70.6077 61.3684C71.1447 59.5984 71.6817 57.834 72.2187 56.0641L72.2242 56.0696Z" fill="#3C663F"/>
<path d="M42.9027 57.3682C42.7548 58.0422 42.6014 58.7162 42.4644 59.3957C42.2507 60.4478 42.4918 61.467 42.7383 62.4807C42.7712 62.6232 42.7767 62.7711 42.7931 62.9136C42.0589 61.0505 41.9986 59.2039 42.9027 57.3737V57.3682Z" fill="#3C663F"/>
<path d="M82.2465 30.7647C82.7451 30.5674 83.2273 30.3099 83.7424 30.1893C84.5808 29.9866 85.4411 29.888 86.2904 29.7236C86.6849 29.6468 87.063 29.5099 87.4521 29.4003C86.9918 29.5811 86.5425 29.8167 86.0657 29.9318C84.8 30.2386 83.5177 30.4907 82.2465 30.7647Z" fill="#3C663F"/>
<path d="M29.8175 57.8395C29.8942 57.7956 29.9709 57.7189 30.0422 57.7189C31.2696 57.7189 32.497 57.7409 33.7245 57.7518C32.4203 57.7792 31.1217 57.8066 29.8175 57.8395Z" fill="#245831"/>
<path d="M46.3933 66.4863C46.9687 66.6014 47.544 66.7 48.1139 66.8261C49.1167 67.0507 50.0756 66.7932 51.04 66.574C51.1989 66.5356 51.3633 66.5192 51.5222 66.4918C49.8126 67.2151 48.1029 67.2644 46.3933 66.4863Z" fill="#3C663F"/>
<path d="M72.3502 66.2835C72.531 65.5986 72.6954 64.9082 72.9037 64.2287C73.1338 63.4725 73.3968 62.7327 73.6544 61.9875C73.6818 61.9108 73.7804 61.856 73.8462 61.7903C73.3475 63.2862 72.8489 64.7876 72.3502 66.2835Z" fill="#38633B"/>
<path d="M69.9063 60.9026C69.435 59.4066 68.9638 57.9162 68.498 56.4203C68.4871 56.3874 68.5418 56.3326 68.5638 56.2887C69.0131 57.8285 69.4569 59.3683 69.9063 60.9026Z" fill="#3C663F"/>
<path d="M61.8019 61.6642C61.3964 60.2176 60.9854 58.7655 60.58 57.3189C60.9909 58.7655 61.3964 60.2176 61.8019 61.6642Z" fill="#3C663F"/>
<path d="M33.9327 49.4831C33.1162 49.4118 32.2943 49.2639 31.4833 49.2913C30.6559 49.3242 29.8339 49.5324 29.012 49.6584C28.9517 49.6694 28.8859 49.6255 28.8202 49.6091C29.2805 49.4612 29.7408 49.2201 30.2065 49.1927C31.4559 49.1159 32.7162 49.0447 33.9327 49.4831Z" fill="#38633B"/>
<path d="M57.8676 59.8395C57.9278 59.8998 58.021 59.9491 58.0429 60.0203C58.3936 61.0889 58.7388 62.1574 59.0785 63.2259C59.0895 63.2588 59.0347 63.3136 59.0128 63.3574C58.6292 62.1848 58.2456 61.0121 57.8676 59.834V59.8395Z" fill="#38633B"/>
<path d="M66.4706 59.708C66.5418 59.7792 66.6514 59.834 66.6843 59.9162C67.0185 60.93 67.3418 61.9437 67.6597 62.9629C67.6925 63.0615 67.6597 63.1821 67.6597 63.2917C67.2651 62.0971 66.8706 60.9026 66.4761 59.708H66.4706Z" fill="#38633B"/>
<path d="M26.4694 66.6014C27.2858 66.6287 28.1023 66.6781 28.9187 66.6781C29.1818 66.6781 29.4503 66.5575 29.7133 66.4918C29.5763 66.5959 29.4393 66.7822 29.2968 66.7877C28.4585 66.8041 27.6256 66.7877 26.7872 66.7657C26.6776 66.7657 26.5735 66.6616 26.4694 66.6014Z" fill="#38633B"/>
<path d="M63.1281 58.2888C63.0185 58.7929 62.9308 59.308 62.7829 59.8012C62.5801 60.4806 62.328 61.1437 62.0979 61.8177C62.4431 60.645 62.7829 59.4669 63.1281 58.2943V58.2888Z" fill="#38633B"/>
<path d="M51.8125 54.1243C50.5248 53.5215 49.1549 53.5873 47.785 53.5983C49.1549 53.3572 50.492 53.4229 51.7852 53.9764C51.8126 53.9873 51.8016 54.075 51.8125 54.1243Z" fill="#38633B"/>
<path d="M26.2338 58.0477C26.2338 59.6039 26.2338 61.1546 26.2338 62.7108C26.2064 62.5355 26.1516 62.3547 26.1516 62.1793C26.1461 60.9793 26.1461 59.7792 26.1516 58.5792C26.1516 58.4039 26.2064 58.2285 26.2392 58.0477H26.2338Z" fill="#FAF7F2"/>
<path d="M77.786 37.6252C77.7586 36.2936 77.7312 34.9621 77.7147 33.6306C77.7147 33.5538 77.8353 33.4716 77.901 33.3895C77.901 34.6333 77.901 35.8772 77.8901 37.1211C77.8901 37.2909 77.8243 37.4553 77.786 37.6252Z" fill="#245831"/>
<path d="M86.126 26.392C85.1615 26.5454 84.1971 26.7043 83.2272 26.8523C83.0738 26.8742 82.9149 26.8742 82.7615 26.8797C83.7423 26.5399 84.7232 26.2057 85.7862 26.2879C85.9013 26.2988 86.0109 26.3536 86.126 26.392Z" fill="#38633B"/>
<path d="M37.6862 66.6123C38.4697 66.6123 39.2478 66.6124 40.0314 66.6069C39.7465 66.6781 39.4616 66.7932 39.1711 66.8096C38.678 66.8425 38.1848 66.8096 37.6916 66.8096C37.6916 66.7439 37.6916 66.6781 37.6862 66.6178V66.6123Z" fill="#1A663D"/>
<path d="M67.7857 63.4889C68.087 64.4095 68.3829 65.3356 68.6843 66.2561C68.6843 66.2945 68.6788 66.3274 68.6734 66.3657C68.3446 65.4068 68.0158 64.4479 67.6925 63.4889C67.7254 63.4889 67.7528 63.4889 67.7857 63.4889Z" fill="#3C663F"/>
<path d="M36.793 49.5872C36.7601 50.6612 36.7327 51.7352 36.6943 52.8092C36.6889 53.001 36.6341 53.1928 36.6012 53.3846C36.5957 52.2941 36.5793 51.2092 36.5902 50.1187C36.5902 49.9434 36.7217 49.7625 36.793 49.5872Z" fill="#38633B"/>
<path d="M76.2955 54.2941C76.2517 53.8503 76.038 53.6695 75.5667 53.7078C74.7064 53.7736 73.8406 53.7845 72.9749 53.8174C73.1666 53.7462 73.3584 53.6147 73.5502 53.6092C74.2845 53.5818 75.0187 53.6202 75.753 53.5928C76.3065 53.5708 76.438 53.8065 76.2955 54.2941Z" fill="#38633B"/>
<path d="M68.9966 66.6069C70.0377 66.6069 71.0843 66.6069 72.1254 66.6069C71.0843 66.963 70.0432 66.9521 68.9966 66.6069Z" fill="#38633B"/>
<path d="M26.3488 57.9381C26.3105 57.9381 26.2721 57.9381 26.2392 57.9381C25.5762 57.8614 24.9186 57.7847 24.2556 57.7025C24.7871 57.7025 25.3187 57.6915 25.8447 57.7189C26.0146 57.7299 26.179 57.8559 26.3488 57.9326V57.9381Z" fill="#245831"/>
<path d="M67.72 53.7462C67.1227 53.7352 66.5254 53.7133 65.9227 53.7243C65.4679 53.7352 65.013 53.79 64.5637 53.8229C64.6021 53.7845 64.635 53.7133 64.6733 53.7133C65.687 53.7188 66.7063 53.7297 67.72 53.7407V53.7462Z" fill="#38633B"/>
<path d="M56.1634 53.7901C56.3716 54.6394 56.5798 55.4833 56.7826 56.3326C56.5141 55.4997 56.0319 54.7216 56.1634 53.7901Z" fill="#38633B"/>
<path d="M53.4784 38.0143L53.5113 37.9704C53.5661 38.0252 53.6647 38.0745 53.6757 38.1403C53.8072 38.8252 53.9277 39.5102 54.0538 40.1897C53.862 39.4609 53.6702 38.7376 53.4784 38.0088V38.0143Z" fill="#38633B"/>
<path d="M33.8121 52.2886C34.5245 52.2503 34.5847 52.19 34.5847 51.4777C34.5847 51.0009 34.5847 50.5297 34.5847 50.053H34.6286H34.6724C34.6779 50.5461 34.6943 51.0393 34.6943 51.527C34.6943 52.3051 34.5902 52.3982 33.8066 52.3654C33.8066 52.338 33.8066 52.316 33.8066 52.2886H33.8121Z" fill="#385636"/>
<path d="M59.2593 53.7845C58.3278 53.7626 57.3962 53.7352 56.4592 53.7133C56.4592 53.6859 56.4592 53.6585 56.4592 53.6256C57.2866 53.6202 58.1141 53.6037 58.9415 53.6147C59.0456 53.6147 59.1497 53.7243 59.2538 53.7845H59.2593Z" fill="#385636"/>
<path d="M26.1516 55.1818C25.6968 55.2092 25.242 55.2531 24.7872 55.264C24.4584 55.2695 24.2008 55.3408 24.1406 55.7134C24.1077 55.7134 24.0803 55.7134 24.0474 55.7134C24.0365 55.3243 24.2392 55.149 24.6173 55.1545C25.1269 55.1654 25.642 55.1709 26.1516 55.1818Z" fill="#3C663F"/>
<path d="M33.8121 52.2886C33.8121 52.2886 33.8121 52.3379 33.8121 52.3653C33.1764 52.2557 32.5463 52.1407 31.9106 52.0311C32.5463 52.1188 33.1819 52.2064 33.8176 52.2886H33.8121Z" fill="#3C663F"/>
<path d="M33.8066 55.7134C33.8395 55.7134 33.8724 55.7134 33.9053 55.7134C33.9053 56.2778 33.9272 56.8422 33.9107 57.4066C33.9107 57.5326 33.8066 57.6532 33.7518 57.7737C33.7683 57.0888 33.7902 56.3983 33.8066 55.7079V55.7134Z" fill="#245831"/>
<path d="M24.0475 55.7133C24.0804 55.7133 24.1077 55.7133 24.1406 55.7133C24.1406 56.3435 24.1406 56.9737 24.1406 57.6093C24.1077 56.9791 24.0749 56.349 24.042 55.7133H24.0475Z" fill="#245831"/>
<path d="M26.2776 53.5983C26.2667 54.1188 26.2502 54.6394 26.2393 55.1654C26.2502 54.6449 26.2667 54.1243 26.2776 53.5983Z" fill="#3C663F"/>
<path d="M30.6942 52.2831C30.9518 51.9051 31.297 51.8612 31.697 52.0256C31.3627 52.1133 31.0285 52.201 30.6942 52.2831Z" fill="#3C663F"/>
<path d="M72.8324 13.3176C72.9365 13.0546 73.0406 12.7861 73.1502 12.5231C73.0461 12.7861 72.942 13.0546 72.8324 13.3176Z" fill="#7AAA39"/>
<path d="M37.6862 66.6123C37.6862 66.6781 37.6862 66.7438 37.6917 66.8041C37.4286 66.7383 37.1656 66.6726 36.9081 66.6013C37.1656 66.6013 37.4286 66.6014 37.6862 66.6068V66.6123Z" fill="#245831"/>
<path d="M65.6047 22.5343C65.7088 22.2329 65.813 21.9261 65.9116 21.6247C65.8075 21.9261 65.7034 22.2329 65.6047 22.5343Z" fill="#589A3D"/>
<path d="M76.0818 54.9682C76.153 54.7599 76.2243 54.5517 76.29 54.3435C76.2188 54.5517 76.1475 54.7599 76.0818 54.9682Z" fill="#38633B"/>
<path d="M82.0437 27.1098C81.8409 27.203 81.6382 27.2961 81.4409 27.3893C81.6437 27.2961 81.8464 27.203 82.0437 27.1098Z" fill="#38633B"/>
<path d="M68.0323 54.4859C67.972 54.2887 67.9117 54.0969 67.8459 53.8996C67.9062 54.0969 67.9665 54.2887 68.0323 54.4859Z" fill="#38633B"/>
<path d="M26.2722 66.0425C26.2996 66.0425 26.3325 66.0425 26.3599 66.0425C26.3982 66.2288 26.4366 66.4151 26.475 66.6069C26.4092 66.4206 26.338 66.2343 26.2722 66.048V66.0425Z" fill="#38633B"/>
<path d="M15.5924 32.9456C15.702 32.7977 15.8116 32.6497 15.9212 32.4963C15.8116 32.6442 15.702 32.7922 15.5924 32.9456Z" fill="#E8B654"/>
<path d="M34.6724 50.0529H34.6285H34.5847C34.5463 49.9379 34.508 49.8283 34.4696 49.7132C34.5354 49.8283 34.6066 49.9379 34.6724 50.0529Z" fill="#38633B"/>
<path d="M15.9211 32.4963C15.9211 32.3483 15.9211 32.2004 15.9266 32.0524C15.9266 32.2004 15.9266 32.3483 15.9211 32.4963Z" fill="#E8B654"/>
<path d="M56.4648 53.6256C56.4648 53.653 56.4648 53.6859 56.4648 53.7133C56.3771 53.7243 56.2895 53.7352 56.2018 53.7462C56.2895 53.7078 56.3771 53.664 56.4648 53.6256Z" fill="#38633B"/>
<path d="M66.6733 20.3863C66.7555 20.2822 66.8377 20.1781 66.9199 20.0685C66.8377 20.1726 66.7555 20.2767 66.6733 20.3863Z" fill="#589A3D"/>
<path d="M66.0157 58.7217C66.0596 58.6614 66.1034 58.6011 66.1473 58.5409C66.1692 58.6011 66.1966 58.6614 66.2185 58.7217C66.1527 58.7217 66.087 58.7217 66.0157 58.7217Z" fill="#3C663F"/>
<path d="M55.0237 56.9353C54.947 56.8148 54.8703 56.6942 54.7936 56.5682C54.8703 56.6887 54.947 56.8093 55.0237 56.9353Z" fill="#3C663F"/>
<path d="M36.919 49.4776C36.9847 49.4776 37.056 49.483 37.1217 49.4885C37.0066 49.5214 36.8971 49.5598 36.782 49.5926C36.8258 49.5543 36.8751 49.5159 36.919 49.4776Z" fill="#38633B"/>
<path d="M55.1826 57.1929C55.1278 57.1052 55.073 57.0176 55.0127 56.9299C55.0675 57.0176 55.1223 57.1052 55.1826 57.1929Z" fill="#3C663F"/>
<path d="M72.2351 66.4972C72.2789 66.4205 72.3228 66.3493 72.3611 66.2726C72.3173 66.3493 72.2735 66.4205 72.2351 66.4972Z" fill="#38633B"/>
<path d="M29.7024 66.2616C29.7353 66.2616 29.7681 66.2616 29.7955 66.2616C29.7681 66.3438 29.7353 66.4205 29.7079 66.5027C29.7079 66.426 29.7079 66.3438 29.7079 66.2671L29.7024 66.2616Z" fill="#38633B"/>
<path d="M81.4464 27.3838C81.3697 27.4167 81.293 27.455 81.2108 27.4879C81.2875 27.455 81.3642 27.4167 81.4464 27.3838Z" fill="#38633B"/>
<path d="M67.7858 63.4889C67.7529 63.4889 67.7255 63.4889 67.6926 63.4889C67.6762 63.4177 67.6597 63.352 67.6433 63.2807C67.6926 63.352 67.7365 63.4177 67.7858 63.4889Z" fill="#38633B"/>
<path d="M73.3474 45.1815C73.4241 45.1377 73.4954 45.0939 73.5721 45.0555C73.4954 45.0993 73.4241 45.1432 73.3474 45.1815Z" fill="#3C663F"/>
<path d="M43.0123 57.1435C42.9739 57.2203 42.9356 57.297 42.8972 57.3792C42.9356 57.3025 42.9739 57.2257 43.0123 57.1435Z" fill="#3C663F"/>
<path d="M74.1475 44.65C74.2132 44.6007 74.279 44.5459 74.3502 44.4966C74.2844 44.5459 74.2187 44.6007 74.1475 44.65Z" fill="#3C663F"/>
<path d="M34.4752 49.7132C34.3984 49.6749 34.3217 49.631 34.2505 49.5927C34.3272 49.631 34.4039 49.6749 34.4752 49.7132Z" fill="#38633B"/>
<path d="M47.7906 53.5873C47.7632 53.5982 47.7358 53.6092 47.7084 53.6147C47.7358 53.5982 47.7632 53.5873 47.7906 53.5873Z" fill="#38633B"/>
<path d="M66.5692 20.5124C66.6021 20.474 66.635 20.4356 66.6679 20.3918C66.635 20.4302 66.6021 20.4685 66.5692 20.5124Z" fill="#589A3D"/>
<path d="M48.1741 34.3812C48.1632 34.3374 48.1522 34.2991 48.1412 34.2552C48.1577 34.2826 48.1741 34.31 48.1851 34.3374C48.1851 34.3484 48.1796 34.3648 48.1741 34.3812Z" fill="#E8B654"/>
<path d="M48.3605 39.2088C48.3167 39.2088 48.2783 39.2033 48.2345 39.1978C48.2783 39.1978 48.3167 39.2033 48.3605 39.2088Z" fill="#E8B654"/>
<path d="M87.4465 29.4003C87.4904 29.3565 87.5397 29.3181 87.5835 29.2743C87.5397 29.3126 87.4904 29.3565 87.4465 29.4003Z" fill="#3C663F"/>
<path d="M77.8956 33.4004C77.934 33.362 77.9723 33.3237 78.0162 33.2798C77.9778 33.3182 77.9395 33.3566 77.8956 33.4004Z" fill="#245831"/>
<path d="M68.679 66.3657C68.679 66.3274 68.6789 66.2945 68.6899 66.2561C68.6899 66.3055 68.7009 66.3548 68.7009 66.4041L68.679 66.3602V66.3657Z" fill="#38633B"/>
<path d="M68.7446 66.4589C68.7446 66.4589 68.7939 66.5082 68.8213 66.5356C68.7939 66.5082 68.772 66.4863 68.7446 66.4589Z" fill="#38633B"/>
<path d="M58.4539 41.9596C58.0977 41.5321 57.6594 41.1486 57.4073 40.6664C57.0895 40.0581 56.9251 39.3677 56.6949 38.7156C56.9963 38.1567 58.0868 37.8992 58.569 38.2773C58.9032 39.2745 59.232 40.2773 59.5663 41.2746C59.1224 41.3787 58.4703 41.1541 58.4594 41.9596H58.4539Z" fill="#43973E"/>
<path d="M58.5689 38.2772C58.0867 37.8991 56.9963 38.1567 56.6949 38.7156C56.6237 38.3101 56.5469 37.8991 56.4757 37.4936C56.5305 37.0662 56.5853 36.6388 56.6291 36.2498C57.1607 36.2114 57.6648 36.1731 58.1908 36.1347C58.2182 36.2827 58.2511 36.447 58.2895 36.6717C58.3223 36.584 58.3388 36.5676 58.3388 36.5512C58.3388 35.9046 58.3497 35.258 58.3552 34.6114C58.3881 34.6169 58.4264 34.6333 58.4593 34.6443C58.4593 34.6716 58.4593 34.699 58.4593 34.7264C58.4593 35.5374 58.4703 36.3484 58.4758 37.1539C58.5086 37.5265 58.536 37.9046 58.5689 38.2772Z" fill="#5B9E3C"/>
<path d="M58.3552 34.6059C58.3552 35.2525 58.3442 35.8991 58.3387 36.5457C58.3387 36.5621 58.3278 36.5786 58.2894 36.6662C58.2456 36.4416 58.2182 36.2772 58.1908 36.1292C57.6647 36.1676 57.1606 36.206 56.6291 36.2443C56.5798 36.6334 56.525 37.0608 56.4757 37.4882C56.4702 36.9841 56.4592 36.4745 56.4592 35.9703C56.4592 35.3183 56.7496 34.8196 57.2428 34.4141C57.6099 34.4415 57.9826 34.4744 58.3497 34.5073L58.3442 34.5018C58.3442 34.5347 58.3442 34.573 58.3552 34.6059Z" fill="#6BA33A"/>
<path d="M58.4538 41.9595C58.4648 41.154 59.1169 41.3787 59.5607 41.2746C60.032 41.9212 60.5087 42.5678 60.969 43.1979C60.284 43.4062 59.0456 42.8198 58.4484 41.9595H58.4538Z" fill="#298D3E"/>
<path d="M53.4785 37.6032C53.4072 36.869 53.336 36.1292 53.2648 35.395C53.3141 35.1374 53.3579 34.8744 53.4127 34.6059C53.4675 35.4936 53.5278 36.3703 53.5716 37.2416C53.5771 37.3567 53.5114 37.4827 53.484 37.5978L53.4785 37.6032Z" fill="#1A663D"/>
<path d="M58.4758 37.1539C58.4758 36.343 58.4648 35.532 58.4594 34.7265C58.4594 35.5375 58.4703 36.3484 58.4758 37.1539Z" fill="#1A663D"/>
<path d="M58.3498 34.5073C57.9827 34.4744 57.6101 34.447 57.2429 34.4141C57.632 34.184 58.0046 34.184 58.3498 34.5073Z" fill="#1A663D"/>
<path d="M58.3553 34.6059C58.3444 34.573 58.3444 34.5402 58.3444 34.5018C58.3827 34.5456 58.4211 34.595 58.4594 34.6388C58.4266 34.6224 58.3937 34.6114 58.3553 34.6059Z" fill="#1A663D"/>
<path d="M52.2181 61.593C52.503 60.6286 52.5523 59.6751 52.1469 58.7272C52.2729 58.9902 52.4701 59.2368 52.5085 59.5107C52.6181 60.2231 52.7112 60.9574 52.2181 61.593Z" fill="#38633B"/>
<path d="M50.2345 56.7381C49.4235 56.4586 48.6125 56.4422 47.8015 56.749C48.4043 56.2504 49.5879 56.2449 50.2345 56.7381Z" fill="#38633B"/>
<path d="M51.6647 62.5903C51.7085 62.519 51.7578 62.4478 51.8017 62.382C51.7578 62.4533 51.7085 62.5245 51.6647 62.5903Z" fill="#38633B"/>
<path d="M51.8016 62.3821C51.8345 62.3382 51.8674 62.2999 51.9057 62.256C51.8729 62.2999 51.84 62.3382 51.8016 62.3821Z" fill="#38633B"/>
<path d="M35.0724 38.0964C35.3573 37.9375 35.6258 37.669 35.9272 37.6307C37.4122 37.4499 38.5245 38.1567 39.1656 39.3622C39.8616 40.6773 39.5821 42.2062 38.7218 43.2199C37.0779 45.1761 33.7573 44.2227 33.1874 41.8664C32.9298 40.7869 33.1764 39.8828 33.708 38.9896C33.7189 38.9732 33.8504 39.028 33.9217 39.0499C33.8449 39.5047 34.0751 39.6362 34.4915 39.6253C35.2696 39.6033 35.993 38.8855 35.9984 38.0526C35.6861 38.0691 35.3792 38.0855 35.0724 38.0964Z" fill="#DB912D"/>
<path d="M35.0723 38.0964C35.3792 38.08 35.6861 38.0635 35.9984 38.0526C35.9929 38.8855 35.2696 39.6033 34.4915 39.6252C34.0805 39.6362 33.8449 39.5102 33.9216 39.0499C34.223 38.7704 34.5244 38.491 34.8203 38.2115C34.897 38.1677 34.9737 38.1238 35.0504 38.0745L35.0723 38.0909V38.0964Z" fill="#FAF7F2"/>
<path d="M35.0505 38.08C34.9737 38.1238 34.897 38.1677 34.8203 38.217C34.897 38.1731 34.9737 38.1293 35.0505 38.08Z" fill="#DB912D"/>
<path d="M62.2184 18.1506C62.3061 17.8328 62.3883 17.5095 62.4759 17.1917H62.465C62.5033 17.0766 62.5417 16.9616 62.58 16.852L62.5691 16.8629C62.6074 16.8246 62.6458 16.7807 62.6842 16.7424C63.0622 16.1506 63.4349 15.5588 63.813 14.9725C63.8458 14.9396 63.8732 14.9067 63.9061 14.8738C63.9445 14.7971 63.9883 14.7149 64.0267 14.6382L64.0321 14.6492C64.1034 14.5724 64.1746 14.4957 64.2513 14.419H64.2404C64.2787 14.3807 64.3171 14.3423 64.3554 14.2985L64.35 14.3039C64.3883 14.2656 64.4267 14.2272 64.4705 14.1834L64.465 14.1889C64.5034 14.1505 64.5417 14.1122 64.5801 14.0683L64.5746 14.0738C64.6185 14.0354 64.6678 13.9971 64.7116 13.9587C64.8157 13.8546 64.9198 13.7505 65.024 13.6464C65.0623 13.6026 65.1007 13.5587 65.139 13.5094L65.1335 13.5149C65.1719 13.4765 65.2103 13.4382 65.2541 13.3998L65.2486 13.4053C65.287 13.3669 65.3253 13.3286 65.3637 13.2902H65.3527C65.4075 13.2519 65.4623 13.2135 65.5226 13.1751C66.2843 12.4738 67.0459 11.7724 67.8076 11.071H67.8021C67.8405 10.9943 67.8788 10.923 67.9227 10.8463L67.9336 10.8682L67.9829 10.8901L68.0268 10.8573C68.0706 10.797 68.109 10.7367 68.1528 10.6764C68.2624 10.5504 68.3665 10.4244 68.4761 10.2983C68.8761 9.72847 69.2761 9.15859 69.6816 8.59419C69.6926 8.58323 69.7145 8.56679 69.7255 8.57227C69.7583 8.58323 69.7803 8.60515 69.8076 8.62159C69.32 9.76135 68.8378 10.9011 68.3501 12.0354C68.3117 12.0792 68.2734 12.1231 68.235 12.1669V12.1614C68.1966 12.2381 68.1528 12.3094 68.1145 12.3861L68.1254 12.3806C68.087 12.419 68.0487 12.4573 68.0103 12.5012V12.4957C67.9336 12.6053 67.8569 12.7203 67.7802 12.8299H67.7911C67.7528 12.8683 67.7144 12.9066 67.6761 12.945L67.6816 12.9395C67.6432 12.9779 67.6048 13.0162 67.5665 13.0601V13.0491C66.7555 14.1067 65.939 15.1697 65.1281 16.2273C65.0513 16.3533 64.9746 16.4793 64.9034 16.6054H64.9089C64.8705 16.6821 64.8322 16.7588 64.7938 16.8355L64.7993 16.8246C64.7609 16.9013 64.7226 16.978 64.6787 17.0547V17.0437C64.4924 17.4547 64.3116 17.8657 64.1253 18.2767C63.6266 18.2767 63.139 17.9314 62.6239 18.2657C62.5526 18.315 62.3663 18.189 62.2348 18.1452L62.2184 18.1506Z" fill="#EEC526"/>
<path d="M68.4652 10.3093C68.3556 10.4353 68.2515 10.5614 68.1419 10.6874C68.0707 10.5614 68.005 10.4353 67.9337 10.3093C67.9502 10.2545 67.9666 10.1997 67.9776 10.1449C68.1365 10.1997 68.3008 10.249 68.4598 10.3038L68.4652 10.3093Z" fill="#88B036"/>
<path d="M67.9172 10.8573C67.8788 10.934 67.8405 11.0052 67.7966 11.0819C67.835 11.0052 67.8733 10.934 67.9172 10.8573Z" fill="#88B036"/>
<path d="M68.0159 10.8628L67.972 10.8956L67.9227 10.8737C67.9337 10.8463 67.9446 10.8189 67.9556 10.7915C67.9775 10.8135 67.994 10.8354 68.0159 10.8628Z" fill="#88B036"/>
<path d="M64.887 16.6109C64.9637 16.4849 65.0404 16.3588 65.1116 16.2328C65.0349 16.3588 64.9582 16.4849 64.887 16.6109Z" fill="#6BA33A"/>
<path d="M64.6622 17.0602C64.7006 16.9835 64.7389 16.9068 64.7828 16.8301C64.7444 16.9068 64.7061 16.9835 64.6622 17.0602Z" fill="#6BA33A"/>
<path d="M64.2514 14.4135C64.1802 14.4903 64.1089 14.567 64.0322 14.6437C64.1035 14.567 64.1747 14.4903 64.2514 14.4135Z" fill="#7AAA39"/>
<path d="M64.4705 14.1834C64.4322 14.2218 64.3938 14.2601 64.35 14.3039C64.3883 14.2656 64.4267 14.2272 64.4705 14.1834Z" fill="#7AAA39"/>
<path d="M64.5802 14.0738C64.5418 14.1122 64.5034 14.1505 64.4651 14.1944C64.5034 14.156 64.5418 14.1177 64.5802 14.0738Z" fill="#7AAA39"/>
<path d="M65.1335 13.5149C65.0952 13.5587 65.0568 13.6026 65.0184 13.6519C65.0568 13.608 65.0952 13.5642 65.1335 13.5149Z" fill="#7AAA39"/>
<path d="M65.2486 13.4053C65.2102 13.4437 65.1719 13.482 65.1281 13.5204C65.1664 13.482 65.2048 13.4437 65.2486 13.4053Z" fill="#7AAA39"/>
<path d="M65.5172 13.1861C65.4624 13.2245 65.4076 13.2628 65.3473 13.3012C65.4021 13.2628 65.4569 13.2245 65.5172 13.1861Z" fill="#7AAA39"/>
<path d="M64.3609 14.2985C64.3226 14.3368 64.2842 14.3752 64.2458 14.419C64.2842 14.3807 64.3226 14.3423 64.3609 14.2985Z" fill="#7AAA39"/>
<path d="M67.5555 13.0656C67.5939 13.0272 67.6323 12.9889 67.6706 12.945C67.6323 12.9834 67.5939 13.0217 67.5555 13.0656Z" fill="#7AAA39"/>
<path d="M67.9994 12.5066C68.0377 12.4683 68.0761 12.4299 68.1145 12.3861C68.0761 12.4244 68.0377 12.4628 67.9994 12.5066Z" fill="#7AAA39"/>
<path d="M60.2348 19.2849C60.18 19.2411 60.1197 19.1972 60.0649 19.1534C60.0759 19.1424 60.0869 19.1315 60.1033 19.1151C60.1471 19.1698 60.191 19.2301 60.2348 19.2849Z" fill="#6BA33A"/>
<path d="M62.5855 16.8465C62.5472 16.9615 62.5088 17.0766 62.4705 17.1862C62.5088 17.0711 62.5472 16.9561 62.5855 16.8465Z" fill="#6BA33A"/>
<path d="M62.2185 18.1506C62.35 18.1945 62.5363 18.3205 62.6075 18.2712C63.1226 17.9369 63.6103 18.2767 64.1089 18.2821C64.0048 18.7643 63.9062 19.2465 63.8021 19.7288C63.7473 20.2438 63.6925 20.7534 63.6377 21.2685C63.5993 20.9014 63.5555 20.5397 63.5116 20.1342C63.2596 21.0439 62.6678 20.5397 62.1089 20.3918V21.8603C61.7582 20.611 61.8513 19.3781 62.2185 18.1506Z" fill="#ECCB17"/>
<path d="M62.7718 24.0686C62.591 23.5152 62.4047 22.9617 62.2239 22.4083C62.2294 22.3316 62.2348 22.2549 62.2403 22.1782C62.2403 22.1069 62.2403 22.0302 62.2403 21.959C62.717 22.096 63.2047 22.2932 63.5609 21.7398C63.6047 21.9973 63.6431 22.2549 63.6869 22.5124C63.7253 22.6165 63.7691 22.7206 63.8075 22.8302C63.8842 23.1261 63.9609 23.422 64.0321 23.7179C63.6869 23.7672 63.3417 23.822 62.9691 23.8768C63.0075 24.0741 63.0623 24.3536 63.117 24.633L62.7718 24.0686Z" fill="#D0CA1F"/>
<path d="M63.1171 24.633C63.0623 24.3535 63.0075 24.0741 62.9691 23.8768C63.3363 23.822 63.6869 23.7672 64.0322 23.7179L64.0212 23.7289C64.0596 23.8056 64.0979 23.8823 64.1363 23.9535C64.1363 23.9535 64.1308 23.9481 64.1363 23.9481C64.1746 24.0248 64.2075 24.1015 64.2459 24.1782C64.4376 24.5892 64.6349 24.9947 64.8267 25.4056C64.6349 25.6687 64.4431 25.9317 64.2459 26.1947C63.8787 25.707 63.5116 25.2138 63.1499 24.7262C63.139 24.6933 63.1335 24.6604 63.1225 24.6275V24.6385L63.1171 24.633Z" fill="#B7C429"/>
<path d="M63.561 21.7343C63.1993 22.2878 62.7171 22.0905 62.2404 21.9535C62.1966 21.9152 62.1527 21.8823 62.1089 21.8439V21.8549C62.1089 21.4001 62.1089 20.9398 62.1089 20.3863C62.6678 20.5343 63.2596 21.0384 63.5117 20.1288C63.5555 20.5343 63.5993 20.9014 63.6377 21.2631C63.6322 21.3014 63.6103 21.3234 63.5774 21.3288C63.5774 21.4603 63.5665 21.5919 63.5665 21.7234L63.561 21.7343Z" fill="#DEC917"/>
<path d="M64.2404 26.1892C64.4321 25.9262 64.6239 25.6632 64.8212 25.4002C65.0349 25.7125 65.2431 26.0249 65.4623 26.3427C65.276 26.5564 65.1116 26.7427 64.876 27.0112C64.6458 26.7153 64.4431 26.4523 64.2404 26.1892Z" fill="#7AAA39"/>
<path d="M63.5609 21.7343C63.5609 21.6028 63.5719 21.4713 63.5719 21.3398C63.6102 21.7288 63.6431 22.1179 63.6814 22.5069C63.6376 22.2494 63.5993 21.9918 63.5554 21.7343H63.5609Z" fill="#ECCB17"/>
<path d="M64.1363 23.9481C64.098 23.8713 64.0596 23.7946 64.0212 23.7234C64.0596 23.8001 64.098 23.8768 64.1363 23.9481Z" fill="#D0CA1F"/>
<path d="M63.1116 24.6221C63.1225 24.6549 63.128 24.6878 63.139 24.7207C63.1225 24.6878 63.1116 24.6549 63.1116 24.6221Z" fill="#D0CA1F"/>
<path d="M62.2402 22.1727C62.2348 22.2494 62.2293 22.3261 62.2238 22.4028C62.1964 22.3261 62.169 22.2494 62.1471 22.1672C62.18 22.1672 62.2128 22.1672 62.2457 22.1672L62.2402 22.1727Z" fill="#DEC917"/>
<path d="M62.2404 22.1727C62.2075 22.1727 62.1746 22.1727 62.1418 22.1727C62.1308 22.0631 62.1198 21.959 62.1089 21.8494C62.1527 21.8877 62.1966 21.9206 62.2404 21.959C62.2404 22.0302 62.2404 22.1069 62.2404 22.1781V22.1727Z" fill="#ECCB17"/>
</svg>
